<?xml version="1.0" encoding="UTF-8" standalone="no"?>
<svg
   xmlns:dc="http://purl.org/dc/elements/1.1/"
   xmlns:cc="http://creativecommons.org/ns#"
   xmlns:rdf="http://www.w3.org/1999/02/22-rdf-syntax-ns#"
   xmlns:svg="http://www.w3.org/2000/svg"
   xmlns="http://www.w3.org/2000/svg"
   xmlns:sodipodi="http://sodipodi.sourceforge.net/DTD/sodipodi-0.dtd"
   xmlns:inkscape="http://www.inkscape.org/namespaces/inkscape"
   version="1.1"
   id="svg2"
   xml:space="preserve"
   width="2666.6667"
   height="761.64001"
   viewBox="0 0 2666.6667 761.64001"
   sodipodi:docname="AI white.ai"><metadata
     id="metadata8"><rdf:RDF><cc:Work
         rdf:about=""><dc:format>image/svg+xml</dc:format><dc:type
           rdf:resource="http://purl.org/dc/dcmitype/StillImage" /></cc:Work></rdf:RDF></metadata><defs
     id="defs6"><clipPath
       clipPathUnits="userSpaceOnUse"
       id="clipPath22"><path
         d="M 0,571.23 H 2000 V 0 H 0 Z"
         id="path20" /></clipPath></defs><sodipodi:namedview
     pagecolor="#ffffff"
     bordercolor="#666666"
     borderopacity="1"
     objecttolerance="10"
     gridtolerance="10"
     guidetolerance="10"
     inkscape:pageopacity="0"
     inkscape:pageshadow="2"
     inkscape:window-width="640"
     inkscape:window-height="480"
     id="namedview4" /><g
     id="g10"
     inkscape:groupmode="layer"
     inkscape:label="AI white"
     transform="matrix(1.3333333,0,0,-1.3333333,0,761.64)"><g
       id="g12"
       transform="translate(371.9736,398.2911)"><path
         d="m 0,0 v -48.337 h -100.909 v -52.219 h 75.505 v -46.926 h -75.505 v -100.203 h -60.333 V 0 Z"
         style="fill:#ffffff;fill-opacity:1;fill-rule:nonzero;stroke:none"
         id="path14" /></g><g
       id="g16"><g
         id="g18"
         clip-path="url(#clipPath22)"><g
           id="g24"
           transform="translate(522.8057,212.7037)"><path
             d="m 0,0 c 8.115,8.468 12.173,20.579 12.173,36.341 0,15.756 -3.942,27.874 -11.819,36.342 -7.884,8.467 -17.587,12.701 -29.109,12.701 -11.765,0 -21.522,-4.178 -29.285,-12.525 -7.762,-8.352 -11.644,-20.525 -11.644,-36.518 0,-15.762 3.822,-27.873 11.468,-36.341 7.641,-8.468 17.228,-12.702 28.755,-12.702 11.523,0 21.347,4.234 29.461,12.702 m -81.503,-52.571 c -15.408,8.23 -27.52,19.99 -36.341,35.282 -8.821,15.288 -13.231,33.166 -13.231,53.63 0,20.227 4.466,38.045 13.407,53.454 8.937,15.403 21.17,27.223 36.694,35.459 15.525,8.231 32.929,12.349 52.219,12.349 19.284,0 36.694,-4.118 52.219,-12.349 15.524,-8.236 27.752,-20.056 36.693,-35.459 8.937,-15.409 13.407,-33.227 13.407,-53.454 0,-20.233 -4.531,-38.05 -13.583,-53.453 C 50.923,-32.521 38.574,-44.341 22.935,-52.571 7.288,-60.808 -10.177,-64.92 -29.461,-64.92 c -19.29,0 -36.639,4.112 -52.042,12.349"
             style="fill:#ffffff;fill-opacity:1;fill-rule:nonzero;stroke:none"
             id="path26" /></g><g
           id="g28"
           transform="translate(629.0049,302.6749)"><path
             d="m 0,0 c 8.347,15.287 19.99,27.046 34.93,35.283 14.934,8.231 32.047,12.349 51.337,12.349 24.698,0 45.337,-6.472 61.92,-19.406 16.584,-12.939 27.46,-31.17 32.637,-54.688 h -64.215 c -5.413,15.05 -15.877,22.581 -31.401,22.581 -11.059,0 -19.88,-4.295 -26.462,-12.878 -6.588,-8.59 -9.88,-20.878 -9.88,-36.871 0,-15.998 3.292,-28.287 9.88,-36.87 6.582,-8.589 15.403,-12.878 26.462,-12.878 15.524,0 25.988,7.524 31.401,22.58 h 64.215 c -5.177,-23.055 -16.114,-41.164 -32.812,-54.335 -16.705,-13.176 -37.284,-19.758 -61.745,-19.758 -19.29,0 -36.403,4.112 -51.337,12.349 -14.94,8.23 -26.583,19.99 -34.93,35.282 -8.353,15.288 -12.525,33.166 -12.525,53.63 0,20.463 4.172,38.337 12.525,53.63"
             style="fill:#ffffff;fill-opacity:1;fill-rule:nonzero;stroke:none"
             id="path30" /></g><g
           id="g32"
           transform="translate(1036.3438,347.484)"><path
             d="m 0,0 v -196.878 h -60.334 v 26.815 c -6.119,-8.705 -14.41,-15.701 -24.875,-20.994 -10.469,-5.292 -22.051,-7.938 -34.752,-7.938 -15.057,0 -28.349,3.352 -39.87,10.056 -11.528,6.704 -20.465,16.406 -26.815,29.108 -6.351,12.701 -9.527,27.636 -9.527,44.809 V 0 h 59.981 v -106.907 c 0,-13.176 3.407,-23.408 10.233,-30.697 6.818,-7.292 15.992,-10.937 27.52,-10.937 11.759,0 21.048,3.645 27.873,10.937 6.82,7.289 10.232,17.521 10.232,30.697 V 0 Z"
             style="fill:#ffffff;fill-opacity:1;fill-rule:nonzero;stroke:none"
             id="path34" /></g><g
           id="g36"
           transform="translate(1113.9639,156.6041)"><path
             d="m 0,0 c -13.407,5.877 -23.992,13.937 -31.755,24.169 -7.762,10.231 -12.117,21.698 -13.055,34.4 h 59.628 c 0.706,-6.825 3.882,-12.348 9.527,-16.583 5.645,-4.234 12.581,-6.35 20.817,-6.35 7.526,0 13.347,1.466 17.465,4.41 4.112,2.938 6.175,6.759 6.175,11.467 0,5.645 -2.945,9.818 -8.822,12.525 -5.881,2.701 -15.408,5.7 -28.579,8.997 -14.113,3.291 -25.877,6.759 -35.282,10.408 -9.411,3.645 -17.525,9.406 -24.346,17.289 -6.824,7.878 -10.231,18.524 -10.231,31.931 0,11.291 3.114,21.578 9.35,30.873 6.229,9.289 15.403,16.638 27.52,22.051 12.112,5.409 26.518,8.116 43.222,8.116 24.698,0 44.158,-6.12 58.392,-18.348 14.23,-12.233 22.406,-28.463 24.522,-48.69 H 68.802 c -0.944,6.82 -3.943,12.228 -8.997,16.231 -5.062,3.996 -11.704,5.998 -19.936,5.998 -7.056,0 -12.47,-1.357 -16.229,-4.058 -3.766,-2.707 -5.646,-6.412 -5.646,-11.114 0,-5.645 2.999,-9.879 8.997,-12.702 5.998,-2.823 15.348,-5.646 28.05,-8.468 14.582,-3.766 26.462,-7.47 35.636,-11.114 9.174,-3.65 17.227,-9.527 24.169,-17.642 6.934,-8.114 10.523,-18.997 10.76,-32.636 0,-11.528 -3.236,-21.82 -9.702,-30.872 C 109.432,11.229 100.143,4.112 88.03,-1.059 75.913,-6.229 61.86,-8.82 45.867,-8.82 28.695,-8.82 13.407,-5.882 0,0"
             style="fill:#ffffff;fill-opacity:1;fill-rule:nonzero;stroke:none"
             id="path38" /></g><g
           id="g40"
           transform="translate(1400.459,268.0973)"><path
             d="m 0,0 c 0,10.348 -3.528,18.579 -10.585,24.698 -7.057,6.114 -15.877,9.174 -26.462,9.174 -10.116,0 -18.644,-2.944 -25.58,-8.821 C -69.567,19.169 -73.862,10.817 -75.505,0 Z M 60.687,-33.519 H -75.857 c 0.936,-12.233 4.878,-21.583 11.819,-28.049 6.935,-6.472 15.464,-9.703 25.58,-9.703 15.05,0 25.52,6.351 31.401,19.052 H 57.158 C 53.861,-65.157 47.924,-76.8 39.341,-87.148 30.751,-97.501 19.99,-105.616 7.057,-111.493 c -12.939,-5.882 -27.406,-8.82 -43.398,-8.82 -19.29,0 -36.463,4.112 -51.513,12.348 -15.056,8.231 -26.815,19.99 -35.283,35.282 -8.467,15.288 -12.702,33.166 -12.702,53.63 0,20.464 4.174,38.338 12.526,53.631 8.346,15.287 20.05,27.046 35.106,35.282 15.051,8.231 32.339,12.349 51.866,12.349 19.053,0 35.988,-4.002 50.807,-11.996 C 29.285,62.214 40.867,50.808 49.22,35.989 57.566,21.17 61.745,3.881 61.745,-15.877 c 0,-5.645 -0.352,-11.527 -1.058,-17.642"
             style="fill:#ffffff;fill-opacity:1;fill-rule:nonzero;stroke:none"
             id="path42" /></g><g
           id="g44"
           transform="translate(1616.918,284.6808)"><path
             d="m 0,0 c -8.353,8.699 -18.523,13.055 -30.52,13.055 -11.996,0 -22.172,-4.295 -30.519,-12.879 -8.353,-8.589 -12.525,-20.409 -12.525,-35.459 0,-15.056 4.172,-26.992 12.525,-35.812 8.347,-8.821 18.523,-13.232 30.519,-13.232 11.997,0 22.167,4.351 30.52,13.055 8.347,8.7 12.525,20.58 12.525,35.636 C 12.525,-20.585 8.347,-8.705 0,0 m -123.49,17.994 c 7.641,15.287 18.05,27.047 31.225,35.283 13.171,8.231 27.873,12.349 44.104,12.349 12.933,0 24.753,-2.707 35.459,-8.115 C -2.001,52.097 6.406,44.809 12.525,35.635 v 91.383 H 72.858 V -134.075 H 12.525 v 28.227 c -5.645,-9.411 -13.705,-16.937 -24.169,-22.581 -10.468,-5.646 -22.641,-8.468 -36.517,-8.468 -16.231,0 -30.933,4.173 -44.104,12.525 -13.175,8.347 -23.584,20.227 -31.225,35.635 -7.647,15.404 -11.467,33.221 -11.467,53.454 0,20.227 3.82,37.984 11.467,53.277"
             style="fill:#ffffff;fill-opacity:1;fill-rule:nonzero;stroke:none"
             id="path46" /></g><g
           id="g48"
           transform="translate(1735.8164,157.1334)"><path
             d="m 0,0 c -6.704,6.229 -10.056,13.937 -10.056,23.11 0,9.406 3.352,17.288 10.056,23.639 6.703,6.352 15.348,9.526 25.933,9.526 10.347,0 18.876,-3.174 25.58,-9.526 C 58.217,40.398 61.568,32.516 61.568,23.11 61.568,13.937 58.217,6.229 51.513,0 44.809,-6.235 36.28,-9.35 25.933,-9.35 15.348,-9.35 6.703,-6.235 0,0"
             style="fill:#ffffff;fill-opacity:1;fill-rule:nonzero;stroke:none"
             id="path50" /></g></g></g></g></svg>
